<svg id="Layer_1" data-name="Layer 1" xmlns="http://www.w3.org/2000/svg" viewBox="0 0 202.66 46.29"><defs><style>.cls-1{fill:#fff;}</style></defs><path class="cls-1" d="M71.08,43.64a23,23,0,0,1,6.5,3.81,2.7,2.7,0,0,1,.92,1.07,3.43,3.43,0,0,1,.23,1.3,2.45,2.45,0,0,1-.84,1.91,2.79,2.79,0,0,1-1.93.75,3.13,3.13,0,0,1-2-.75,16.78,16.78,0,0,0-4.63-2.92,15.93,15.93,0,0,0-5.83-.9,15.35,15.35,0,0,0-8.3,2.37,17.21,17.21,0,0,0-6,6.45,18.89,18.89,0,0,0,0,17.77,17.32,17.32,0,0,0,6,6.41,15.35,15.35,0,0,0,8.3,2.37,17.5,17.5,0,0,0,10.63-3.81,3.27,3.27,0,0,1,1.91-.7,2.39,2.39,0,0,1,1.82.78,3.08,3.08,0,0,1-.21,4.19,22,22,0,0,1-14.15,5,21.58,21.58,0,0,1-11.3-3.06,22,22,0,0,1-8.06-8.38A23.76,23.76,0,0,1,41.17,65.6,23.49,23.49,0,0,1,44.12,54a22.29,22.29,0,0,1,8.06-8.38,21.42,21.42,0,0,1,11.3-3.09A22.49,22.49,0,0,1,71.08,43.64Z" transform="translate(-41.17 -42.48)"/><path class="cls-1" d="M93.32,87.32a2.87,2.87,0,0,1-2.16.87,3,3,0,0,1-3-3V46.06A2.87,2.87,0,0,1,89,43.9a3,3,0,0,1,2.14-.84h11.55A15.23,15.23,0,0,1,110.37,45a13.43,13.43,0,0,1,5.26,5.31A15.85,15.85,0,0,1,117.51,58a14.93,14.93,0,0,1-1.88,7.51,13.27,13.27,0,0,1-5.26,5.14,15.73,15.73,0,0,1-7.66,1.85H94.16V85.19A2.93,2.93,0,0,1,93.32,87.32Zm15.87-22.85A8.69,8.69,0,0,0,111.73,58a9.39,9.39,0,0,0-2.54-6.76,8.57,8.57,0,0,0-6.48-2.66H94.16V67h8.55A8.83,8.83,0,0,0,109.19,64.47Z" transform="translate(-41.17 -42.48)"/><path class="cls-1" d="M152,43.64a23,23,0,0,1,6.5,3.81,2.7,2.7,0,0,1,.92,1.07,3.25,3.25,0,0,1,.23,1.3,2.48,2.48,0,0,1-.83,1.91,2.83,2.83,0,0,1-1.94.75,3.13,3.13,0,0,1-2-.75,16.78,16.78,0,0,0-4.63-2.92,15.9,15.9,0,0,0-5.83-.9,15.29,15.29,0,0,0-8.29,2.37,17.05,17.05,0,0,0-6,6.45,18.82,18.82,0,0,0,0,17.77,17.16,17.16,0,0,0,6,6.41,15.29,15.29,0,0,0,8.29,2.37A17.48,17.48,0,0,0,155,79.47a3.29,3.29,0,0,1,1.91-.7,2.38,2.38,0,0,1,1.82.78,2.91,2.91,0,0,1,.72,2,3,3,0,0,1-.92,2.14,22,22,0,0,1-14.16,5,21.58,21.58,0,0,1-11.3-3.06A22,22,0,0,1,125,77.33a23.76,23.76,0,0,1-3-11.73A23.49,23.49,0,0,1,125,54a22.29,22.29,0,0,1,8.06-8.38,21.42,21.42,0,0,1,11.3-3.09A22.45,22.45,0,0,1,152,43.64Z" transform="translate(-41.17 -42.48)"/><path class="cls-1" d="M196.88,43.64a22.82,22.82,0,0,1,6.5,3.81,2.7,2.7,0,0,1,.92,1.07,3.25,3.25,0,0,1,.23,1.3,2.48,2.48,0,0,1-.83,1.91,2.83,2.83,0,0,1-1.94.75,3.13,3.13,0,0,1-2-.75,16.88,16.88,0,0,0-4.62-2.92,16,16,0,0,0-5.84-.9A15.29,15.29,0,0,0,181,50.28a17.05,17.05,0,0,0-6,6.45,18.82,18.82,0,0,0,0,17.77,17.16,17.16,0,0,0,6,6.41,15.29,15.29,0,0,0,8.29,2.37,17.48,17.48,0,0,0,10.63-3.81,3.29,3.29,0,0,1,1.91-.7,2.38,2.38,0,0,1,1.82.78,2.91,2.91,0,0,1,.72,2,3,3,0,0,1-.92,2.14,22,22,0,0,1-14.16,5A21.6,21.6,0,0,1,178,85.71a22,22,0,0,1-8.06-8.38A23.76,23.76,0,0,1,167,65.6,23.49,23.49,0,0,1,169.92,54,22.29,22.29,0,0,1,178,45.57a21.45,21.45,0,0,1,11.3-3.09A22.45,22.45,0,0,1,196.88,43.64Z" transform="translate(-41.17 -42.48)"/><path class="cls-1" d="M243.83,85.48a2.62,2.62,0,0,1-.78,1.93,2.85,2.85,0,0,1-2.11.78,2.92,2.92,0,0,1-2.6-1.44l-9.94-16H220V85.19a3,3,0,0,1-.83,2.13A3,3,0,0,1,214,85.19V46.06a2.87,2.87,0,0,1,.87-2.16,3,3,0,0,1,2.14-.84h10.4A16.18,16.18,0,0,1,235,44.85a13,13,0,0,1,5.26,5,14.48,14.48,0,0,1,1.87,7.4,12.88,12.88,0,0,1-7.74,12.07l8.84,14.22A3.5,3.5,0,0,1,243.83,85.48ZM227.36,65.25A9.43,9.43,0,0,0,233.83,63a7.27,7.27,0,0,0,2.55-5.74A8.25,8.25,0,0,0,233.83,51a9,9,0,0,0-6.47-2.42H220V65.25Z" transform="translate(-41.17 -42.48)"/></svg>