<?xml version="1.0" encoding="utf-8"?>
<!-- Generator: Adobe Illustrator 25.4.1, SVG Export Plug-In . SVG Version: 6.00 Build 0)  -->
<svg version="1.1" id="Layer_1" xmlns="http://www.w3.org/2000/svg" xmlns:xlink="http://www.w3.org/1999/xlink" x="0px" y="0px"
	 viewBox="0 0 285 131.2" style="enable-background:new 0 0 285 131.2;" xml:space="preserve">
<style type="text/css">
	.st0{fill:#600017;}
	.st1{fill:#FFFFFF;}
</style>
<rect x="96.1" y="19.2" transform="matrix(0.7071 0.7071 -0.7071 0.7071 88.1422 -81.5417)" class="st0" width="92.8" height="92.8"/>
<image style="display:none;overflow:visible;" width="1140" height="525" xlink:href="../../localgit/CPCCR/images/webLogo.png"  transform="matrix(0.25 0 0 0.25 0 0)">
</image>
<g>
	<path class="st1" d="M71.1,43.6c2.1,0.8,4.3,2,6.5,3.8c0.5,0.3,0.8,0.7,0.9,1.1c0.2,0.4,0.2,0.8,0.2,1.3c0,0.8-0.3,1.4-0.8,1.9
		c-0.6,0.5-1.2,0.8-1.9,0.8c-0.7,0-1.4-0.3-2-0.8c-1.6-1.3-3.1-2.3-4.6-2.9c-1.5-0.6-3.4-0.9-5.8-0.9c-3,0-5.8,0.8-8.3,2.4
		c-2.5,1.6-4.5,3.7-6,6.4c-1.5,2.7-2.2,5.7-2.2,8.9c0,3.2,0.7,6.2,2.2,8.9c1.5,2.7,3.5,4.8,6,6.4c2.5,1.6,5.3,2.4,8.3,2.4
		c3.7,0,7.2-1.3,10.6-3.8c0.7-0.5,1.3-0.7,1.9-0.7c0.7,0,1.3,0.3,1.8,0.8c0.5,0.5,0.7,1.2,0.7,2.1c0,0.8-0.3,1.5-0.9,2.1
		c-4.2,3.4-8.9,5-14.2,5c-4.1,0-7.9-1-11.3-3.1c-3.4-2-6.1-4.8-8.1-8.4c-2-3.5-2.9-7.5-2.9-11.7c0-4.2,1-8.1,2.9-11.6
		s4.7-6.3,8.1-8.4c3.4-2.1,7.2-3.1,11.3-3.1C66.4,42.5,68.9,42.9,71.1,43.6z"/>
	<path class="st1" d="M93.3,87.3c-0.6,0.6-1.3,0.9-2.2,0.9c-0.8,0-1.6-0.3-2.1-0.9c-0.6-0.6-0.9-1.3-0.9-2.1V46.1
		c0-0.9,0.3-1.6,0.9-2.2c0.6-0.6,1.3-0.8,2.1-0.8h11.6c2.9,0,5.4,0.6,7.7,1.9c2.3,1.3,4,3,5.3,5.3c1.3,2.3,1.9,4.9,1.9,7.7
		c0,2.8-0.6,5.3-1.9,7.5c-1.3,2.2-3,3.9-5.3,5.1c-2.3,1.2-4.8,1.8-7.7,1.8h-8.6v12.7C94.2,86,93.9,86.7,93.3,87.3z M109.2,64.5
		c1.7-1.7,2.5-3.8,2.5-6.4c0-2.7-0.8-5-2.5-6.8c-1.7-1.8-3.9-2.7-6.5-2.7h-8.6V67h8.6C105.3,67,107.5,66.1,109.2,64.5z"/>
	<path class="st1" d="M152,43.6c2.1,0.8,4.3,2,6.5,3.8c0.5,0.3,0.8,0.7,0.9,1.1c0.2,0.4,0.2,0.8,0.2,1.3c0,0.8-0.3,1.4-0.8,1.9
		c-0.6,0.5-1.2,0.8-1.9,0.8c-0.7,0-1.4-0.3-2-0.8c-1.6-1.3-3.1-2.3-4.6-2.9c-1.5-0.6-3.4-0.9-5.8-0.9c-3,0-5.8,0.8-8.3,2.4
		c-2.5,1.6-4.5,3.7-6,6.4c-1.5,2.7-2.2,5.7-2.2,8.9c0,3.2,0.7,6.2,2.2,8.9c1.5,2.7,3.5,4.8,6,6.4c2.5,1.6,5.3,2.4,8.3,2.4
		c3.7,0,7.2-1.3,10.6-3.8c0.7-0.5,1.3-0.7,1.9-0.7c0.7,0,1.3,0.3,1.8,0.8c0.5,0.5,0.7,1.2,0.7,2.1c0,0.8-0.3,1.5-0.9,2.1
		c-4.2,3.4-8.9,5-14.2,5c-4.1,0-7.9-1-11.3-3.1c-3.4-2-6.1-4.8-8.1-8.4c-2-3.5-2.9-7.5-2.9-11.7c0-4.2,1-8.1,2.9-11.6
		s4.7-6.3,8.1-8.4c3.4-2.1,7.2-3.1,11.3-3.1C147.3,42.5,149.8,42.9,152,43.6z"/>
	<path class="st1" d="M196.9,43.6c2.1,0.8,4.3,2,6.5,3.8c0.5,0.3,0.8,0.7,0.9,1.1c0.2,0.4,0.2,0.8,0.2,1.3c0,0.8-0.3,1.4-0.8,1.9
		c-0.6,0.5-1.2,0.8-1.9,0.8c-0.7,0-1.4-0.3-2-0.8c-1.6-1.3-3.1-2.3-4.6-2.9s-3.4-0.9-5.8-0.9c-3,0-5.8,0.8-8.3,2.4
		c-2.5,1.6-4.5,3.7-6,6.4c-1.5,2.7-2.2,5.7-2.2,8.9c0,3.2,0.7,6.2,2.2,8.9c1.5,2.7,3.5,4.8,6,6.4c2.5,1.6,5.3,2.4,8.3,2.4
		c3.7,0,7.2-1.3,10.6-3.8c0.7-0.5,1.3-0.7,1.9-0.7c0.7,0,1.3,0.3,1.8,0.8c0.5,0.5,0.7,1.2,0.7,2.1c0,0.8-0.3,1.5-0.9,2.1
		c-4.2,3.4-8.9,5-14.2,5c-4.1,0-7.9-1-11.3-3.1c-3.4-2-6.1-4.8-8.1-8.4c-2-3.5-2.9-7.5-2.9-11.7c0-4.2,1-8.1,2.9-11.6
		c2-3.5,4.7-6.3,8.1-8.4c3.4-2.1,7.2-3.1,11.3-3.1C192.2,42.5,194.7,42.9,196.9,43.6z"/>
	<path class="st1" d="M243.8,85.5c0,0.8-0.3,1.4-0.8,1.9c-0.5,0.5-1.2,0.8-2.1,0.8c-1.1,0-2-0.5-2.6-1.4l-9.9-15.9h-1H220v14.4
		c0,0.8-0.3,1.6-0.8,2.1c-0.6,0.6-1.3,0.9-2.2,0.9c-0.8,0-1.6-0.3-2.1-0.9c-0.6-0.6-0.9-1.3-0.9-2.1V46.1c0-0.9,0.3-1.6,0.9-2.2
		c0.6-0.6,1.3-0.8,2.1-0.8h10.4c2.9,0,5.4,0.6,7.7,1.8c2.3,1.2,4,2.9,5.3,5c1.3,2.2,1.9,4.6,1.9,7.4c0,2.7-0.7,5.2-2.1,7.3
		c-1.4,2.1-3.3,3.7-5.7,4.8l8.8,14.2C243.6,84.2,243.8,84.8,243.8,85.5z M227.4,65.2c2.6,0,4.8-0.7,6.5-2.2c1.7-1.5,2.5-3.4,2.5-5.7
		c0-2.5-0.8-4.6-2.5-6.2c-1.7-1.6-3.9-2.4-6.5-2.4H220v16.6H227.4z"/>
</g>
</svg>
